<svg id="Capa_1" enable-background="new 0 0 512 512" height="512" viewBox="0 0 512 512" width="512" xmlns="http://www.w3.org/2000/svg"><g><path d="m496.484 248.5h-27.429l-9.528-19.056c-4.012-8.024-12.077-13.008-21.048-13.008h-6.64v-.516c0-17.396-14.152-31.549-31.548-31.549h-40.081c-8.556 0-15.516 6.961-15.516 15.516v64.645h-17.064v-64.645c0-8.556-6.96-15.516-15.516-15.516h-296.598c-8.556 0-15.516 6.961-15.516 15.516v80.161c0 8.556 6.96 15.516 15.516 15.516h18.156c-1.034 2.647-1.608 5.523-1.608 8.532 0 12.976 10.557 23.532 23.532 23.532s23.532-10.557 23.532-23.532c0-3.009-.574-5.885-1.608-8.532h12.264c-1.034 2.647-1.608 5.523-1.608 8.532 0 12.976 10.557 23.532 23.532 23.532s23.532-10.557 23.532-23.532c0-3.009-.574-5.885-1.608-8.532h82.284c4.142 0 7.5-3.358 7.5-7.5s-3.358-7.5-7.5-7.5h-200.4c-.285 0-.516-.231-.516-.516v-80.161c0-.285.231-.516.516-.516h296.597c.285 0 .516.232.516.516v80.677h-48.609-.001s-.001 0-.002 0c-12.976 0-23.532 10.557-23.532 23.532 0 12.976 10.557 23.532 23.532 23.532s23.532-10.557 23.532-23.532c0-3.009-.574-5.885-1.608-8.532h12.264c-1.034 2.647-1.608 5.523-1.608 8.532 0 12.976 10.557 23.532 23.532 23.532 10.354 0 19.16-6.724 22.3-16.032h73.894c4.142 0 7.5-3.358 7.5-7.5s-3.358-7.5-7.5-7.5h-16.548v-24.564-40.597h17.064v16.548c0 8.556 6.96 15.516 15.516 15.516h64.129c.285 0 .516.231.516.516v32.064c0 .285-.231.516-.516.516h-9.765c-3.139-9.308-11.946-16.032-22.3-16.032-12.976 0-23.532 10.557-23.532 23.532 0 12.976 10.557 23.532 23.532 23.532 10.354 0 19.16-6.724 22.3-16.032h9.765c8.556 0 15.516-6.96 15.516-15.516v-32.064c0-8.555-6.96-15.515-15.516-15.515zm-432.355 55.597c0 4.705-3.828 8.532-8.532 8.532s-8.532-3.828-8.532-8.532c0-4.705 3.828-8.532 8.532-8.532s8.532 3.827 8.532 8.532zm56.113 0c0 4.705-3.828 8.532-8.532 8.532s-8.532-3.828-8.532-8.532c0-4.705 3.828-8.532 8.532-8.532s8.532 3.827 8.532 8.532zm143.774 8.532c-4.705 0-8.532-3.828-8.532-8.532 0-4.705 3.828-8.532 8.532-8.532s8.532 3.828 8.532 8.532c0 4.705-3.827 8.532-8.532 8.532zm56.113 0c-4.705 0-8.532-3.828-8.532-8.532 0-4.705 3.828-8.532 8.532-8.532s8.532 3.828 8.532 8.532c0 4.705-3.828 8.532-8.532 8.532zm22.299-16.032c-2.344-6.951-7.849-12.455-14.8-14.8v-2.265h57.146v17.064h-42.346zm42.346-32.065h-25.081v-33.097h25.081zm-25.081-48.096v-16.548c0-.285.231-.516.516-.516h40.081c9.125 0 16.548 7.424 16.548 16.549v.516h-57.145zm72.146 31.548v-16.548h6.64c3.253 0 6.177 1.807 7.632 4.716l6.174 12.348h-19.929c-.286 0-.517-.231-.517-.516zm32.58 64.645c-4.705 0-8.532-3.828-8.532-8.532 0-4.705 3.828-8.532 8.532-8.532s8.532 3.828 8.532 8.532c.001 4.705-3.827 8.532-8.532 8.532z"/></g></svg>